<svg xmlns="http://www.w3.org/2000/svg" viewBox="-120 -120 240 240" role="img">
  <title>Loopin</title>
  <defs>
    <linearGradient id="gMain" x1="-80" y1="-80" x2="90" y2="90" gradientUnits="userSpaceOnUse">
      <stop offset="0" stop-color="#00ff87" />
      <stop offset="0.55" stop-color="#32f4c8" />
      <stop offset="1" stop-color="#60efff" />
    </linearGradient>
    <linearGradient id="gInner" x1="-40" y1="-40" x2="70" y2="70" gradientUnits="userSpaceOnUse">
      <stop offset="0" stop-color="#00d46e" />
      <stop offset="1" stop-color="#1fd4e8" />
    </linearGradient>
    <filter id="softglow" x="-80%" y="-80%" width="260%" height="260%">
      <feGaussianBlur stdDeviation="5" result="blur" />
      <feMerge>
        <feMergeNode in="blur" />
        <feMergeNode in="SourceGraphic" />
      </feMerge>
    </filter>
  </defs>
  <rect x="-120" y="-120" width="240" height="240" rx="54" fill="#07111d" />
  <circle cx="0" cy="0" r="90" fill="none" stroke="#00ff87" stroke-width="28" stroke-opacity="0.06" />
  <circle cx="0" cy="0" r="72" fill="none" stroke="#32f4c8" stroke-width="16" stroke-opacity="0.07" />
  <path d="M 0,-80 A 80,80 0 1,1 64,50" fill="none" stroke="url(#gMain)" stroke-width="16" stroke-linecap="round" filter="url(#softglow)" />
  <path d="M 64,50 C 46,76 10,66 0,46 C -13,22 6,0 26,3 C 43,6 49,24 40,37" fill="none" stroke="url(#gInner)" stroke-width="10" stroke-linecap="round" />
  <circle cx="72" cy="-30" r="6" fill="#60efff" fill-opacity="0.55" />
  <circle cx="0" cy="-80" r="12" fill="url(#gMain)" filter="url(#softglow)" />
  <circle cx="0" cy="-80" r="6" fill="#ffffff" fill-opacity="0.95" />
</svg>
